<svg viewBox="0 0 211 50" fill="none" xmlns="http://www.w3.org/2000/svg"><path d="M0 38.235v-25.49h.986v25.49H0ZM1.972 11.765V8.824h.986v2.94h-.986ZM1.972 42.157v-3.922h.986v3.922h-.986ZM3.944 7.843v-.98h.986v.98h-.986ZM3.944 44.118v-1.961h.986v1.96h-.986ZM7.888 5.882v-.98h.986v.98h-.986ZM7.888 46.078v-1.96h.986v1.96h-.986ZM21.692 16.667v-1.961h.986v1.96h-.986ZM23.664 20.588v-3.921h.985v3.921h-.985ZM21.692 35.294v-.98h.986v.98h-.986ZM23.664 33.333v-2.94h.985v2.94h-.985ZM39.44 38.235v-25.49h.985v25.49h-.986ZM41.411 11.765V8.824h.986v2.94h-.986ZM41.411 42.157v-3.922h.986v3.922h-.986ZM43.383 7.843v-.98h.986v.98h-.986ZM43.383 44.118v-1.961h.986v1.96h-.986ZM47.327 5.882v-.98h.986v.98h-.986ZM47.327 46.078v-1.96h.986v1.96h-.986ZM61.13 16.667v-1.961h.987v1.96h-.986ZM61.13 35.294v-.98h.987v.98h-.986ZM63.103 33.333V16.667h.986v16.666h-.986ZM78.879 46.078V4.902h.986v41.176h-.986ZM98.598 16.667v-1.961h.986v1.96h-.986ZM100.57 33.333V16.667h.986v16.666h-.986ZM98.598 35.294v-.98h.986v.98h-.986ZM116.346 46.078V4.902h.986v41.176h-.986ZM153.813 42.157V8.824h.986v33.333h-.986ZM155.785 7.843V4.902h.986v2.941h-.986ZM155.785 46.078v-3.921h.986v3.921h-.986ZM157.757 3.922v-.98h.986v.98h-.986ZM157.757 48.04v-1.962h.986v1.961h-.986ZM161.701 1.96V.98h.986v.98h-.986ZM161.701 50v-1.96h.986V50h-.986ZM173.533 37.255V22.549h.986v14.706h-.986ZM179.449 21.569v-6.863h.986v6.863h-.986ZM189.308 26.47V14.707h.986V26.47h-.986ZM191.28 28.431v-1.96h.986v1.96h-.986ZM195.224 37.255v-.98h.986v.98h-.986ZM197.196 35.294v-.98h.986v.98h-.986ZM199.168 33.333v-.98h.986v.98h-.986ZM201.14 31.372v-.98h.986v.98h-.986ZM203.112 29.412V14.706h.986v14.706h-.986Z" fill="#FF0" style="fill:color(display-p3 1 1 0);fill-opacity:1"/><path d="M11.832 16.667h-.986v17.647h.986V16.667ZM12.818 36.275v-1.961h.986v1.96h-.986ZM26.622 6.863V4.902h.986v1.96h-.986ZM30.566 8.824V6.863h.985v1.96h-.985ZM32.537 12.745V8.824h.986v3.921h-.986ZM34.51 20.588v-7.843h.985v7.843h-.986ZM34.51 38.235v-7.843h.985v7.843h-.986ZM32.537 42.157v-3.922h.986v3.922h-.986ZM30.566 44.118v-1.961h.985v1.96h-.985ZM26.622 46.078v-1.96h.986v1.96h-.986ZM52.257 16.667v-1.961h.986v1.96h-.986ZM50.285 34.314V16.667h.986v17.647h-.986ZM52.257 36.275v-1.961h.986v1.96h-.986ZM66.06 6.863V4.902h.987v1.96h-.986ZM70.005 8.824V6.863h.986v1.96h-.986ZM71.977 12.745V8.824h.986v3.921h-.986ZM73.949 38.235v-25.49h.986v25.49h-.986ZM71.977 42.157v-3.922h.986v3.922h-.986ZM70.005 44.118v-1.961h.986v1.96h-.986ZM66.06 46.078v-1.96h.987v1.96h-.986ZM89.724 36.275v-21.57h.986v21.57h-.986ZM103.528 6.863V4.902h.986v1.96h-.986ZM107.472 8.824V6.863h.986v1.96h-.986ZM109.444 12.745V8.824h.986v3.921h-.986ZM111.416 38.235v-25.49h.986v25.49h-.986ZM109.444 42.157v-3.922h.986v3.922h-.986ZM107.472 44.118v-1.961h.986v1.96h-.986ZM103.528 46.078v-1.96h.986v1.96h-.986ZM127.192 20.588v-5.882h.986v5.882h-.986ZM148.883 14.706V4.902h.986v9.804h-.986ZM144.939 30.392v-9.804h.986v9.804h-.986ZM127.192 36.275v-5.883h.986v5.883h-.986ZM148.883 46.078v-9.803h.986v9.803h-.986ZM160.715 22.549v-7.843h.986v7.843h-.986ZM166.631 38.235V22.55h.986v15.686h-.986ZM182.407 30.392V14.706h.986v15.686h-.986ZM184.379 32.353v-1.96h.986v1.96h-.986ZM186.35 34.314v-1.961h.986v1.96h-.986ZM188.322 36.275v-1.961h.986v1.96h-.986ZM190.294 38.235v-1.96h.986v1.96h-.986ZM194.238 28.431v-1.96h.986v1.96h-.986ZM196.21 26.47V14.707h.986V26.47h-.986ZM202.126 2.941V.981h.986v1.96h-.986ZM206.07 4.902v-1.96h.986v1.96h-.986ZM208.042 8.824V4.902h.986v3.922h-.986ZM210.014 42.157V8.824H211v33.333h-.986ZM208.042 46.078v-3.921h.986v3.921h-.986ZM206.07 48.04v-1.962h.986v1.961h-.986ZM202.126 50v-1.96h.986V50h-.986Z" fill="#F0F" style="fill:color(display-p3 1 0 1);fill-opacity:1"/><path d="M.986 12.745v-.98h1.972v.98H.986ZM2.958 8.824v-.98H4.93v.98H2.958ZM4.93 6.863v-.98h3.944v.98H4.93ZM26.622 4.902H8.873v-.98h17.748v.98ZM27.608 6.863v-.98h2.957v.98h-2.957ZM31.551 8.824v-.98h.986v.98h-.986ZM33.523 12.745v-.98h.986v.98h-.986ZM11.832 34.314v-.98h.986v.98h-.986ZM13.804 36.275v-.98h8.874v.98h-8.874ZM22.678 33.333v.98h1.971v-.98h-1.971ZM24.65 29.412v.98h9.86v-.98h-9.86ZM40.425 12.745v-.98h1.972v.98h-1.972ZM42.397 8.824v-.98h1.972v.98h-1.972ZM44.37 5.882v.98h3.943v-.98H44.37ZM48.313 3.922v.98h17.748v-.98H48.313ZM67.047 6.863v-.98h2.958v.98h-2.958ZM70.99 8.824v-.98h.987v.98h-.986ZM72.963 12.745v-.98h.986v.98h-.986ZM62.117 34.314v-.98h1.972v.98h-1.972ZM62.117 36.275v-.98h-8.874v.98h8.874ZM52.257 33.333v.98h-.986v-.98h.986ZM79.865 4.902v-.98h23.663v.98H79.865ZM104.514 6.863v-.98h2.958v.98h-2.958ZM108.458 8.824v-.98h.986v.98h-.986ZM110.43 12.745v-.98h.986v.98h-.986ZM101.556 34.314v-.98h-1.972v.98h1.972ZM99.584 36.275v-.98H90.71v.98h8.874ZM117.332 4.902v-.98h31.551v.98h-31.551ZM128.178 20.588v-.98h16.761v.98h-16.761ZM128.178 36.275v-.98h20.705v.98h-20.705ZM154.799 8.824v-.98h1.972v.98h-1.972ZM158.743 4.902h-1.972v-.98h1.972v.98ZM158.743 2.941v-.98h3.944v.98h-3.944ZM162.687.98V0h39.439v.98h-39.439ZM203.112 2.941v-.98h2.958v.98h-2.958ZM207.056 4.902v-.98h.986v.98h-.986ZM209.028 8.824v-.98h.986v.98h-.986ZM202.126 30.392v-.98h1.972v.98h-1.972ZM202.126 32.353v-.98h-1.972v.98h1.972ZM200.154 34.314v-.98h-1.972v.98h1.972ZM198.182 36.275v-.98h-1.972v.98h1.972ZM196.21 38.235v-.98h-4.93v.98h4.93ZM190.294 36.275v-.98h-.986v.98h.986ZM187.336 34.314v-.98h.986v.98h-.986ZM186.35 31.372v.98h-.986v-.98h.986ZM184.378 29.412v.98h-.985v-.98h.985ZM174.519 21.569h5.916v.98h-5.916v-.98ZM174.519 38.235v-.98h-6.902v.98h6.902ZM166.631 21.569v.98h-4.93v-.98h4.93ZM12.818 16.667v-1.961h.986v1.96h-.986Z" fill="#0FF" style="fill:color(display-p3 0 1 1);fill-opacity:1"/><path d="M.986 38.235v-25.49h1.972V8.824H4.93V6.863h3.944V4.902H26.62v1.96h3.944v1.962h1.972v3.921h1.972v7.843h-9.86v-3.921h-1.971v-1.961h-9.86v1.96h-1.972v17.648h1.972v1.96h9.86v-1.96h1.971v-3.922h9.86v7.843h-1.972v3.922h-1.972v1.96h-3.944v1.961H8.875v-1.96H4.93v-1.961H2.958v-3.922H.986Z" fill="#fff" style="fill:#fff;fill-opacity:1"/><path fill-rule="evenodd" clip-rule="evenodd" d="M40.425 12.745v25.49h1.972v3.922h1.972v1.96h3.944v1.961h17.748v-1.96h3.944v-1.961h1.972v-3.922h1.972v-25.49h-1.972V8.824h-1.972V6.863H66.06V4.902H48.313v1.96H44.37v1.962h-1.972v3.921h-1.972Zm11.832 3.922v-1.961h9.86v1.96h1.972v17.648h-1.972v1.96h-9.86v-1.96h-1.972V16.667h1.972Z" fill="#fff" style="fill:#fff;fill-opacity:1"/><path d="M117.332 4.902v41.176h31.551v-9.803h-21.691v-5.883h17.747v-9.804h-17.747v-5.882h21.691V4.902h-31.551Z" fill="#fff" style="fill:#fff;fill-opacity:1"/><path fill-rule="evenodd" clip-rule="evenodd" d="M154.799 8.824v33.333h1.972v3.921h1.972v1.961h3.944V50h39.439v-1.96h3.944v-1.962h1.972v-3.921h1.972V8.824h-1.972V4.902h-1.972v-1.96h-3.944V.98h-39.439v1.961h-3.944v1.961h-1.972v3.922h-1.972Zm5.916 13.725v-7.843h19.72v7.843h-5.916v15.686h-7.888V22.55h-5.916Zm21.692 7.843V14.706h7.887V26.47h1.972v1.96h1.972v-1.96h1.972V14.706h7.888v15.686h-1.972v1.96h-1.972v1.962h-1.972v1.96h-1.972v1.961h-5.916v-1.96h-1.972v-1.961h-1.972v-1.961h-1.972v-1.96h-1.971ZM79.865 4.902v41.176h23.663v-1.96h3.944v-1.961h1.972v-3.922h1.972v-25.49h-1.972V8.824h-1.972V6.863h-3.944V4.902H79.865Zm9.86 31.373v-21.57h9.86v1.962h1.971v17.647h-1.972v1.96h-9.86Z" fill="#fff" style="fill:#fff;fill-opacity:1"/></svg>