<svg xmlns="http://www.w3.org/2000/svg" version="1.1" xmlns:xlink="http://www.w3.org/1999/xlink" xmlns:svgjs="http://svgjs.dev/svgjs" width="512" height="512"><svg width="512" height="512" viewBox="0 0 512 512" fill="none" xmlns="http://www.w3.org/2000/svg">
<g clip-path="url(#clip0_384_325)">
<rect width="512" height="512" fill="#A3A3A3" style="fill:#A3A3A3;fill:color(display-p3 0.6409 0.6409 0.6409);fill-opacity:1;"></rect>
<rect width="512" height="512" rx="10" fill="#09080C" style="fill:#09080C;fill:color(display-p3 0.0371 0.0312 0.0488);fill-opacity:1;"></rect>
<path d="M401.529 288.871C414.471 288.871 423.176 280.144 423.176 267.643V174H482V280.38C482 299.014 476.353 313.874 464.824 324.725C453.294 335.575 437.529 341 417.765 341C402 341 388.824 337.934 375.882 331.565L370 279.908L370.706 279.436C381.765 286.041 390.941 288.871 401.529 288.871Z" fill="#FAF9FD" style="fill:#FAF9FD;fill:color(display-p3 0.9804 0.9765 0.9922);fill-opacity:1;"></path>
<path d="M260.119 286.034L232.823 340H177.995L131 173.13H194.135L215.022 259.524L259.407 171H262.492L306.639 259.524L327.526 173.13H389L342.005 340H287.177L260.119 286.034Z" fill="#FAF9FD" style="fill:#FAF9FD;fill:color(display-p3 0.9804 0.9765 0.9922);fill-opacity:1;"></path>
<path d="M150 286.436V339H29V174H88.3137V286.436H150Z" fill="#FAF9FD" style="fill:#FAF9FD;fill:color(display-p3 0.9804 0.9765 0.9922);fill-opacity:1;"></path>
</g>
<defs>
<clipPath id="SvgjsClipPath1005">
<rect width="512" height="512" fill="white" style="fill:white;fill-opacity:1;"></rect>
</clipPath>
</defs>
</svg><style>@media (prefers-color-scheme: light) { :root { filter: none; } }
@media (prefers-color-scheme: dark) { :root { filter: none; } }
</style></svg>